<?xml version="1.0" encoding="UTF-8"?>
<svg id="Layer_1" data-name="Layer 1" xmlns="http://www.w3.org/2000/svg" xmlns:xlink="http://www.w3.org/1999/xlink" viewBox="0 0 103 99">
  <defs>
    <style>
      .cls-1 {
        fill: none;
      }

      .cls-2 {
        clip-path: url(#clippath);
      }
    </style>
    <clipPath id="clippath">
      <rect class="cls-1" width="103" height="99"/>
    </clipPath>
  </defs>
  <g class="cls-2">
    <g>
      <path d="M8.68,36.62h15.28v-3.53h-11.32V12.14h8.01v4.37h3.71v-8h-15.68v28.12Z"/>
      <path d="M48.98,12.09h6.13v24.53h3.76V12.09h5.84v-3.58h-15.73v3.58Z"/>
      <path d="M78.64,32.6h-1.43l-3.56-24.09h-4.75l5.04,28.12h8.11l5.09-28.12h-4.99l-3.51,24.09Z"/>
      <path d="M43.84,24.09v-15.55h-14.69v28.12h3.81l-.05-12.56h1.58l6.92,12.56h4.95l-6.87-12.56h4.35ZM32.91,20.56v-8.54h6.97v8.54h-6.97Z"/>
      <path d="M24.11,80.52h-11.98v-11.25h11.98v-3.55h-11.98v-6.12h11.98v-3.55l-15.76.05v28.27h15.76v-3.85Z"/>
      <path d="M44.89,72.38l-11.68-6.71v-5.92h8.05v4.39h3.73v-8.04h-15.76v13.12l11.78,6.76v4.69h-8v-4.39h-3.78v8.09l15.66-.05v-11.94Z"/>
      <path d="M64.72,80.81h-11.39v-21.07h11.7l.08-3.65h-15.76v28.27h15.36v-3.55Z"/>
      <path d="M99.82,51.99l3.18.02-.08-44.53-7.73-7.48H0v45.44l2.26,2.1H0v45.44l6.16,6.01h96.84l-.08-43.97-3.11-3.04h0ZM95.2,89.23v-36.48l3.94,3.86.06,36.71-4.01-3.97v-.11h0ZM99.14,9.06l.06,36.71-4.01-3.97V5.2l3.94,3.86ZM93.52,45.44l2.79,2.77h-.35l-.63-.61-.13.13v-.18H7.59l-2.1-2.1h88.03ZM3.79,3.76h87.62v37.93H3.79V3.76ZM6.16,51.45l85.25.49v37.29H3.79v-37.93h2.22l.15.15ZM5.49,92.99h88.03l2.79,2.77-88.56-.51-2.26-2.26Z"/>
      <path d="M58.26,68.39v3.76h20.52l-4.53,4.49,2.68,2.66,8.11-8.05v-1.6l-8.11-8.05-2.68,2.66,4.16,4.13h-20.16Z"/>
    </g>
  </g>
</svg>