<?xml version="1.0" encoding="UTF-8"?>
<svg id="Layer_1" data-name="Layer 1" xmlns="http://www.w3.org/2000/svg" xmlns:xlink="http://www.w3.org/1999/xlink" viewBox="0 0 130 34">
  <defs>
    <style>
      .cls-1 {
        fill: none;
      }

      .cls-2 {
        fill: #fff;
      }

      .cls-3 {
        clip-path: url(#clippath);
      }
    </style>
    <clipPath id="clippath">
      <rect class="cls-1" width="130" height="34"/>
    </clipPath>
  </defs>
  <g class="cls-3">
    <g>
      <path class="cls-2" d="M15.41,21.63h-7.28V7.94h5.15v2.85h2.38v-5.23H5.58v18.38h9.83v-2.31Z"/>
      <path class="cls-2" d="M35.44,23.94h2.42V7.91h3.75v-2.34h-10.11v2.34h3.94v16.04Z"/>
      <path class="cls-2" d="M52.77,23.94l3.28-18.38h-3.21l-2.26,15.75h-.92l-2.29-15.75h-3.05l3.24,18.38h5.22Z"/>
      <path class="cls-2" d="M21.16,15.75h1.02l4.45,8.21h3.18l-4.42-8.21h2.8V5.58h-9.45v18.38h2.45l-.03-8.21h0ZM21.16,7.86h4.48v5.58h-4.48v-5.58Z"/>
      <path class="cls-2" d="M69.13,24.07h10.13v-2.51h-7.71v-7.35h7.71v-2.32h-7.71v-4h7.71v-2.32l-10.13.03v18.48Z"/>
      <path class="cls-2" d="M82.56,14.17l7.58,4.42v3.06h-5.15v-2.87h-2.43v5.29l10.07-.03v-7.8l-7.51-4.39v-3.87h5.18v2.87h2.4v-5.26h-10.13v8.58Z"/>
      <path class="cls-2" d="M98.06,7.98h7.52l.05-2.39h-10.14v18.48h9.88v-2.32h-7.32V7.98Z"/>
      <path class="cls-2" d="M111.51,10.93l2.68,2.7h-12.96v2.46h13.2l-2.91,2.94,1.72,1.74,5.22-5.26v-1.04l-5.22-5.26-1.72,1.74Z"/>
      <path class="cls-2" d="M124.98,0h-61.22v2.48L61.22,0H0v29.71l3.96,3.93,62.28.36v-1.88s1.48,1.51,1.48,1.51l62.28.36-.05-29.11-4.97-4.89ZM124.98,27.25V3.4l2.54,2.52.04,24-2.58-2.6v-.07ZM66.2,8.9V2.46h56.35v24.79h-56.32l-.03-18.35h0ZM63.76,8.92v20.79h.03v.22l-2.58-2.6V3.4l2.54,2.52v2.99s0,0,0,0ZM58.78,2.46v24.79H2.44V2.46h56.35ZM3.53,29.71h56.61l1.8,1.81-56.95-.33-1.45-1.48ZM67.29,29.71h56.61l1.8,1.81-56.95-.33-1.45-1.48Z"/>
    </g>
  </g>
</svg>